<svg xmlns="http://www.w3.org/2000/svg" width="99" height="24" viewBox="0 0 838 204" role="img" aria-label="AinePay">
  <path fill="#3C35CE" d="M329.625 146H313.375V124H256.25V146H240V101.188C240 94.6458 241.125 88.625 243.375 83.125C245.625 77.625 248.75 72.8958 252.75 68.9375C256.75 64.9792 261.479 61.8958 266.938 59.6875C272.396 57.4792 278.354 56.375 284.812 56.375H321.438C322.562 56.375 323.625 56.5833 324.625 57C325.625 57.4167 326.5 58 327.25 58.75C328 59.5 328.583 60.375 329 61.375C329.417 62.375 329.625 63.4375 329.625 64.5625V146ZM256.25 107.75H313.375V72.625H284.812C284.312 72.625 283.25 72.7083 281.625 72.875C280.042 73 278.188 73.3542 276.062 73.9375C273.979 74.5208 271.771 75.4167 269.438 76.625C267.104 77.8333 264.958 79.5 263 81.625C261.042 83.75 259.417 86.4167 258.125 89.625C256.875 92.7917 256.25 96.6458 256.25 101.188V107.75ZM363.25 64.5625H347V49.875H363.25V64.5625ZM363.25 146H347V78.4375H363.25V146ZM453.75 146H437.5V108.5C437.5 106.375 437.125 104.479 436.375 102.812C435.667 101.104 434.688 99.6458 433.438 98.4375C432.188 97.2292 430.708 96.3125 429 95.6875C427.333 95.0208 425.521 94.6875 423.562 94.6875H395.125V146H378.875V86.5C378.875 85.375 379.083 84.3333 379.5 83.375C379.917 82.375 380.5 81.5208 381.25 80.8125C382 80.0625 382.875 79.4792 383.875 79.0625C384.875 78.6458 385.938 78.4375 387.062 78.4375H423.688C425.729 78.4375 427.875 78.6667 430.125 79.125C432.417 79.5833 434.667 80.3333 436.875 81.375C439.125 82.375 441.25 83.6667 443.25 85.25C445.292 86.7917 447.083 88.6875 448.625 90.9375C450.208 93.1458 451.458 95.7083 452.375 98.625C453.292 101.542 453.75 104.833 453.75 108.5V146ZM540.688 100.812C540.688 103.062 540.292 105.5 539.5 108.125C538.708 110.708 537.417 113.125 535.625 115.375C533.875 117.583 531.562 119.438 528.688 120.938C525.854 122.438 522.396 123.188 518.312 123.188H489V107.75H518.312C520.521 107.75 522.229 107.083 523.438 105.75C524.646 104.375 525.25 102.688 525.25 100.688C525.25 98.5625 524.562 96.8958 523.188 95.6875C521.854 94.4792 520.229 93.875 518.312 93.875H489C486.792 93.875 485.083 94.5625 483.875 95.9375C482.667 97.2708 482.062 98.9375 482.062 100.938V123.625C482.062 125.792 482.729 127.479 484.062 128.688C485.438 129.896 487.125 130.5 489.125 130.5H518.312V146H489C486.75 146 484.312 145.604 481.688 144.812C479.104 144.021 476.688 142.75 474.438 141C472.229 139.208 470.375 136.896 468.875 134.062C467.375 131.188 466.625 127.708 466.625 123.625V100.812C466.625 98.5625 467.021 96.1458 467.812 93.5625C468.604 90.9375 469.875 88.5208 471.625 86.3125C473.417 84.0625 475.729 82.1875 478.562 80.6875C481.438 79.1875 484.917 78.4375 489 78.4375H518.312C520.562 78.4375 522.979 78.8333 525.562 79.625C528.188 80.4167 530.604 81.7083 532.812 83.5C535.062 85.25 536.938 87.5625 538.438 90.4375C539.938 93.2708 540.688 96.7292 540.688 100.812ZM642.75 93.875C642.75 97.5833 642.292 100.896 641.375 103.812C640.458 106.729 639.208 109.312 637.625 111.562C636.083 113.771 634.292 115.667 632.25 117.25C630.208 118.833 628.062 120.125 625.812 121.125C623.604 122.125 621.354 122.854 619.062 123.312C616.812 123.771 614.688 124 612.688 124H575.938V107.75H612.688C614.771 107.583 616.646 107.167 618.312 106.5C620.021 105.792 621.479 104.854 622.688 103.688C623.896 102.521 624.833 101.125 625.5 99.5C626.167 97.8333 626.5 95.9583 626.5 93.875V86.5C626.292 84.4583 625.854 82.5833 625.188 80.875C624.521 79.1667 623.604 77.7083 622.438 76.5C621.312 75.2917 619.938 74.3542 618.312 73.6875C616.688 72.9792 614.812 72.625 612.688 72.625H576.062C573.896 72.625 572.25 73.1875 571.125 74.3125C570 75.4375 569.438 77.0625 569.438 79.1875V146H553.188V79.1875C553.188 75.0208 553.938 71.4792 555.438 68.5625C556.979 65.6458 558.875 63.2917 561.125 61.5C563.417 59.7083 565.896 58.4167 568.562 57.625C571.229 56.7917 573.688 56.375 575.938 56.375H612.688C616.354 56.375 619.646 56.8542 622.562 57.8125C625.479 58.7292 628.042 59.9792 630.25 61.5625C632.5 63.1042 634.396 64.8958 635.938 66.9375C637.521 68.9792 638.812 71.125 639.812 73.375C640.854 75.5833 641.604 77.8333 642.062 80.125C642.521 82.375 642.75 84.5 642.75 86.5V93.875ZM722.5 123.625C722.5 125.875 722.104 128.312 721.312 130.938C720.521 133.521 719.229 135.938 717.438 138.188C715.688 140.396 713.375 142.25 710.5 143.75C707.667 145.25 704.208 146 700.125 146H670.812C668.562 146 666.125 145.604 663.5 144.812C660.917 144.021 658.5 142.75 656.25 141C654.042 139.208 652.188 136.896 650.688 134.062C649.188 131.188 648.438 127.708 648.438 123.625C648.438 121.375 648.833 118.938 649.625 116.312C650.417 113.688 651.688 111.271 653.438 109.062C655.229 106.812 657.542 104.938 660.375 103.438C663.25 101.938 666.729 101.188 670.812 101.188H700.125V116.688H670.812C668.604 116.688 666.896 117.375 665.688 118.75C664.479 120.083 663.875 121.75 663.875 123.75C663.875 125.875 664.562 127.542 665.938 128.75C667.354 129.917 669.021 130.5 670.938 130.5H700.125C702.333 130.5 704.042 129.833 705.25 128.5C706.458 127.167 707.062 125.5 707.062 123.5V100.812C707.062 98.6875 706.396 97 705.062 95.75C703.771 94.5 702.125 93.875 700.125 93.875H664.438V78.4375H700.125C702.375 78.4375 704.792 78.8333 707.375 79.625C710 80.4167 712.417 81.7083 714.625 83.5C716.875 85.25 718.75 87.5625 720.25 90.4375C721.75 93.2708 722.5 96.7292 722.5 100.812V123.625ZM810.875 152.5C810.875 155.292 810.521 157.792 809.812 160C809.104 162.25 808.167 164.208 807 165.875C805.833 167.583 804.479 169.021 802.938 170.188C801.396 171.396 799.771 172.375 798.062 173.125C796.396 173.875 794.708 174.417 793 174.75C791.292 175.125 789.667 175.312 788.125 175.312H758.812V159.062H788.125C790.292 159.062 791.917 158.5 793 157.375C794.083 156.25 794.625 154.625 794.625 152.5V78.4375H810.875V152.5ZM788.125 146H758.812C756.479 146 753.979 145.604 751.312 144.812C748.688 144.021 746.229 142.729 743.938 140.938C741.646 139.104 739.75 136.75 738.25 133.875C736.75 130.958 736 127.396 736 123.188V78.4375H752.25V123.188C752.25 125.312 752.812 126.938 753.938 128.062C755.062 129.188 756.729 129.75 758.938 129.75H788.125V146Z"/>
  <circle cx="102" cy="102" r="102" fill="#3C35CE"/>
  <path fill="#FBFBFF" d="M68.2071 30.2481L106.65 29.7722L60.7126 167.125L24.2044 167.125L68.2071 30.2481Z"/>
  <path fill="#FBFBFF" d="M89.4783 120.758L129.2 120.758L114.554 166.726L73.7538 166.726L89.4783 120.758Z"/>
  <path fill="#FBFBFF" d="M143.878 120.758L183.6 120.758L168.954 166.726L128.154 166.726L143.878 120.758Z"/>
  <path fill="#FBFBFF" d="M104.568 74.3018L144.892 74.3018L134.431 105.375L94.2516 105.375L104.568 74.3018Z"/>
</svg>
